<svg width="24" height="24" viewBox="0 0 24 24" fill="none" xmlns="http://www.w3.org/2000/svg">
  <defs>
    <clipPath id="clip221_5542">
      <rect width="24" height="24" />
    </clipPath>
  </defs>
  <g clip-path="url(#clip160_258)">
		<path id="Vector" d="M22.95 9.59C22.76 9.41 22.5 9.3 22.24 9.3C21.97 9.3 21.72 9.41 21.53 9.59L10.64 20.53C10.17 21 9.62 21.37 9.02 21.62C8.41 21.87 7.76 22 7.1 22C5.78 22 4.51 21.47 3.57 20.53C2.63 19.6 2.1 18.32 2.1 17C2.1 15.67 2.63 14.4 3.57 13.46L14.12 2.87C14.68 2.32 15.44 2.01 16.23 2.01C17.02 2.01 17.78 2.33 18.34 2.89C18.9 3.45 19.22 4.2 19.22 5C19.22 5.79 18.91 6.55 18.36 7.11L7.81 17.7C7.62 17.89 7.37 17.99 7.1 17.99C6.84 17.99 6.59 17.89 6.4 17.7C6.21 17.52 6.1 17.26 6.1 17C6.1 16.73 6.21 16.48 6.4 16.29L15.79 6.86C15.97 6.67 16.07 6.41 16.07 6.15C16.07 5.89 15.96 5.64 15.78 5.45C15.59 5.27 15.34 5.16 15.08 5.16C14.82 5.16 14.56 5.26 14.37 5.44L4.98 14.88C4.7 15.16 4.48 15.49 4.33 15.85C4.18 16.21 4.1 16.6 4.1 17C4.1 17.39 4.18 17.78 4.33 18.15C4.48 18.51 4.7 18.84 4.98 19.12C5.55 19.67 6.31 19.97 7.1 19.97C7.89 19.97 8.65 19.67 9.22 19.12L19.77 8.53C20.69 7.58 21.2 6.32 21.19 5C21.18 3.69 20.66 2.43 19.73 1.5C18.8 0.57 17.54 0.04 16.22 0.04C14.91 0.03 13.64 0.54 12.7 1.46L2.15 12.05C0.84 13.36 0.1 15.14 0.1 17C0.1 18.86 0.84 20.64 2.15 21.95C3.47 23.26 5.25 24 7.1 24C8.96 24 10.74 23.26 12.05 21.95L22.95 11.01C23.04 10.92 23.11 10.81 23.16 10.69C23.21 10.57 23.24 10.44 23.24 10.3C23.24 10.17 23.21 10.04 23.16 9.92C23.11 9.8 23.04 9.69 22.95 9.59Z" fill="#9ED5FF" fill-opacity="1.000000" fill-rule="nonzero"/>
	</g>
</svg>
