<svg width="541.000000" height="82.000000" viewBox="0 0 541 82" fill="none" xmlns="http://www.w3.org/2000/svg" xmlns:xlink="http://www.w3.org/1999/xlink">
	<desc>
			Created with Pixso.
	</desc>
	<defs>
		<clipPath id="clip163_3054">
			<rect id="feather:upload-cloud" rx="0.000000" width="47.000000" height="47.000000" transform="translate(38.000000 17.500000)" fill="white" fill-opacity="0"/>
		</clipPath>
	</defs>
	<rect id="feather:upload-cloud" rx="0.000000" width="47.000000" height="47.000000" transform="translate(38.000000 17.500000)" fill="#FFFFFF" fill-opacity="0"/>
	<g clip-path="url(#clip163_3054)">
		<path id="Vector" d="M69.5 49L61.5 41L53.5 49" stroke="#9ED5FF" stroke-opacity="1.000000" stroke-width="2.000000" stroke-linejoin="round" stroke-linecap="round"/>
		<path id="Vector" d="M61.5 41L61.5 59" stroke="#9ED5FF" stroke-opacity="1.000000" stroke-width="2.000000" stroke-linejoin="round" stroke-linecap="round"/>
		<path id="Vector" d="M78.28 53.77C80.23 52.71 81.77 51.03 82.65 48.99C83.54 46.96 83.73 44.68 83.18 42.53C82.63 40.38 81.38 38.47 79.63 37.1C77.87 35.74 75.72 35 73.5 35L70.98 35C70.37 32.65 69.24 30.48 67.67 28.64C66.11 26.79 64.14 25.33 61.93 24.36C59.72 23.38 57.31 22.92 54.9 23.01C52.48 23.1 50.11 23.74 47.98 24.87C45.84 26.01 43.99 27.61 42.56 29.56C41.14 31.52 40.17 33.77 39.74 36.15C39.31 38.53 39.42 40.97 40.07 43.3C40.72 45.63 41.89 47.78 43.5 49.6" stroke="#9ED5FF" stroke-opacity="1.000000" stroke-width="2.000000" stroke-linejoin="round" stroke-linecap="round"/>
		<path id="Vector" d="M69.5 49L61.5 41L53.5 49" stroke="#9ED5FF" stroke-opacity="1.000000" stroke-width="2.000000" stroke-linejoin="round" stroke-linecap="round"/>
	</g>
	<path id="Выберите файл или перенесите его сюда ." d="M121.95 42.78Q121.95 43.41 122.21 43.91Q122.22 43.94 122.24 43.97Q122.42 44.28 122.66 44.51Q122.83 44.66 123.03 44.79Q123.15 44.86 123.28 44.91Q123.68 45.09 124.16 45.09Q124.66 45.09 125.07 44.9Q125.18 44.85 125.29 44.79Q125.5 44.66 125.67 44.49Q125.91 44.26 126.07 43.97Q126.08 43.96 126.08 43.94Q126.36 43.43 126.36 42.78Q126.36 42.13 126.09 41.62Q126.08 41.6 126.07 41.58Q125.89 41.24 125.62 41Q125.46 40.86 125.29 40.76Q125.2 40.71 125.11 40.66Q124.68 40.46 124.16 40.46Q123.8 40.46 123.4 40.62Q123.34 40.64 123.27 40.67Q122.96 40.82 122.68 41.07Q122.67 41.08 122.66 41.09Q122.35 41.38 122.15 41.79Q121.95 42.21 121.95 42.78ZM121.82 40.91Q121.85 40.37 121.99 39.83Q122.07 39.51 122.21 39.23Q122.39 38.87 122.65 38.56Q123.14 38 124 37.72Q124.77 37.47 125.38 37.09Q125.99 36.71 126.37 36.2Q126.6 35.89 126.72 35.54Q126.79 35.31 126.82 35.07L125.71 35.07Q125.61 35.58 125.15 36.04Q124.68 36.49 123.72 36.81Q122.61 37.19 121.97 37.9Q121.89 37.98 121.82 38.07Q121.3 38.73 121.08 39.61Q120.83 40.62 120.83 41.93Q120.83 43.32 121.27 44.26Q121.68 45.14 122.38 45.61Q122.42 45.64 122.46 45.67Q122.72 45.82 122.99 45.93Q123.54 46.14 124.16 46.14Q124.97 46.14 125.63 45.82Q125.75 45.77 125.86 45.7Q126.19 45.51 126.45 45.26Q126.8 44.94 127.05 44.5Q127.12 44.38 127.18 44.25Q127.49 43.59 127.49 42.78Q127.49 41.89 127.13 41.19Q127.09 41.11 127.05 41.04Q126.81 40.63 126.48 40.32Q126.2 40.05 125.86 39.85Q125.75 39.78 125.63 39.73Q124.97 39.42 124.16 39.42Q123.58 39.42 123.1 39.63Q123.08 39.64 123.06 39.65Q122.91 39.72 122.78 39.8Q122.45 40.01 122.2 40.31Q121.98 40.58 121.82 40.91ZM105.81 41.19L105.81 44.95L107.28 44.95Q107.9 44.95 108.39 44.72Q108.73 44.56 108.97 44.3Q109.07 44.2 109.15 44.08Q109.42 43.66 109.42 43.06Q109.42 42.61 109.26 42.26Q109.16 42.03 109 41.85Q108.92 41.75 108.82 41.67Q108.54 41.43 108.14 41.31Q107.75 41.19 107.28 41.19L105.81 41.19ZM108.41 40.65Q108.5 40.67 108.59 40.69Q109.19 40.84 109.65 41.16Q109.87 41.31 110.05 41.51Q110.23 41.72 110.36 41.97Q110.61 42.45 110.61 43.12Q110.61 44.09 110.17 44.73Q110.02 44.94 109.84 45.12Q109.47 45.47 108.97 45.68Q108.23 46 107.28 46L104.62 46L104.62 36.2L107.14 36.2Q108.02 36.2 108.67 36.46Q109.14 36.65 109.46 36.99Q109.58 37.12 109.68 37.27Q110.05 37.81 110.05 38.65Q110.05 39.17 109.83 39.58Q109.77 39.71 109.68 39.82Q109.66 39.86 109.63 39.89Q109.27 40.33 108.67 40.56Q108.54 40.61 108.41 40.65ZM105.81 40.16L107.14 40.16Q107.62 40.16 108.02 39.99Q108.33 39.86 108.53 39.63Q108.58 39.57 108.63 39.5Q108.65 39.47 108.67 39.44Q108.86 39.13 108.86 38.71Q108.86 38.26 108.65 37.94Q108.54 37.77 108.37 37.63Q108.31 37.58 108.25 37.54Q107.79 37.25 107.14 37.25L105.81 37.25L105.81 40.16ZM182.56 36.44Q182.55 36.35 182.55 36.26L183.55 36.26Q183.55 36.45 183.64 36.69Q183.74 36.94 184.01 37.13Q184.28 37.31 184.76 37.31Q185.26 37.31 185.52 37.13Q185.79 36.94 185.89 36.69Q185.98 36.45 185.98 36.26L186.98 36.26Q186.98 36.35 186.97 36.44Q186.93 36.83 186.73 37.2Q186.69 37.28 186.64 37.35Q186.4 37.7 185.99 37.94Q185.51 38.23 184.76 38.23Q184.04 38.23 183.54 37.94Q183.13 37.7 182.89 37.34Q182.84 37.27 182.8 37.2Q182.6 36.83 182.56 36.44ZM169.46 39.45L169.46 38.15L170.58 38.15L170.58 39.45Q171.33 39.53 171.93 39.85Q172.47 40.14 172.85 40.57Q173.04 40.79 173.19 41.04Q173.24 41.13 173.29 41.22Q173.64 41.91 173.64 42.78Q173.64 43.57 173.34 44.22Q173.27 44.37 173.19 44.5Q173.03 44.78 172.82 45.01Q172.45 45.42 171.93 45.7Q171.33 46.02 170.58 46.1L170.58 47.4L169.46 47.4L169.46 46.1Q168.73 46.02 168.13 45.7Q167.6 45.42 167.22 45Q167.02 44.77 166.86 44.5Q166.78 44.37 166.71 44.22Q166.41 43.57 166.41 42.78Q166.41 41.91 166.76 41.22Q166.8 41.13 166.86 41.04Q167.01 40.79 167.19 40.58Q167.58 40.14 168.13 39.85Q168.73 39.53 169.46 39.45ZM169.46 40.51Q169.04 40.58 168.7 40.76Q168.36 40.94 168.12 41.2Q167.96 41.37 167.85 41.58Q167.81 41.63 167.79 41.69Q167.55 42.17 167.55 42.78Q167.55 43.39 167.79 43.87Q167.82 43.92 167.85 43.97Q167.94 44.13 168.06 44.27Q168.32 44.58 168.7 44.79Q169.04 44.97 169.46 45.04L169.46 40.51ZM170.58 45.04Q171.01 44.97 171.35 44.79Q171.72 44.58 171.98 44.27Q172.1 44.13 172.2 43.97Q172.23 43.92 172.25 43.87Q172.5 43.39 172.5 42.78Q172.5 42.17 172.26 41.69Q172.23 41.63 172.2 41.58Q172.08 41.37 171.93 41.2Q171.68 40.94 171.35 40.76Q171.01 40.58 170.58 40.51L170.58 45.04ZM149.68 39.06L145.41 43.73L145.41 39.56L144.29 39.56L144.29 46.48L148.56 41.82L148.56 46L149.68 46L149.68 39.06ZM187.43 39.06L183.15 43.73L183.15 39.56L182.04 39.56L182.04 46.48L186.31 41.82L186.31 46L187.43 46L187.43 39.06ZM207.07 39.06L202.8 43.73L202.8 39.56L201.68 39.56L201.68 46.48L205.95 41.82L205.95 46L207.07 46L207.07 39.06ZM222.51 39.06L218.24 43.73L218.24 39.56L217.12 39.56L217.12 46.48L221.39 41.82L221.39 46L222.51 46L222.51 39.06ZM285.9 39.06L281.63 43.73L281.63 39.56L280.51 39.56L280.51 46.48L284.78 41.82L284.78 46L285.9 46L285.9 39.06ZM348.19 44.95L346.59 41.49L344.99 44.95L348.19 44.95ZM349.44 44.95L346.59 39.06L343.75 44.95L342.6 44.95L342.6 47.26L343.79 47.26L343.79 46L349.46 46L349.46 47.26L350.58 47.26L350.58 44.95L349.44 44.95ZM129.61 43.06L134.69 43.06Q134.7 42.97 134.7 42.89L134.7 42.72Q134.7 41.7 134.32 40.96Q134.09 40.5 133.73 40.17Q133.52 39.97 133.26 39.82Q133.22 39.8 133.18 39.78Q132.52 39.42 131.66 39.42Q130.88 39.42 130.24 39.72Q130.21 39.73 130.17 39.75Q129.81 39.93 129.51 40.2Q129.27 40.42 129.09 40.69Q128.67 41.29 128.53 42.09Q128.5 42.26 128.48 42.43Q128.47 42.59 128.47 42.78Q128.47 43.73 128.86 44.48Q128.86 44.49 128.87 44.5Q129.15 45.04 129.57 45.41Q129.75 45.57 129.96 45.7Q130.17 45.83 130.41 45.93Q130.92 46.14 131.52 46.14Q132.36 46.14 132.92 45.93Q133.48 45.73 133.87 45.36Q134.27 44.99 134.59 44.5L133.68 43.92Q133.5 44.23 133.25 44.46Q133.22 44.5 133.18 44.53Q133.08 44.62 132.98 44.69Q132.76 44.84 132.51 44.94Q132.14 45.09 131.66 45.09Q131.03 45.09 130.57 44.82Q130.44 44.74 130.33 44.65Q130.04 44.41 129.86 44.04Q129.65 43.62 129.61 43.06ZM129.64 42.1Q129.69 41.68 129.88 41.35Q129.89 41.33 129.91 41.31Q130.04 41.09 130.23 40.92Q130.41 40.75 130.64 40.64Q130.72 40.59 130.8 40.56Q131.2 40.4 131.66 40.4Q132.22 40.4 132.61 40.62Q132.8 40.72 132.95 40.87Q133.1 41.02 133.21 41.22Q133.43 41.6 133.48 42.1L129.64 42.1ZM142.25 40.98Q142.68 41.73 142.68 42.78Q142.68 43.81 142.25 44.57Q141.95 45.08 141.52 45.43Q141.32 45.6 141.09 45.73Q140.92 45.82 140.75 45.9Q140.17 46.14 139.49 46.14Q138.89 46.14 138.4 45.91Q138.24 45.83 138.08 45.73Q138.02 45.69 137.97 45.65Q137.57 45.34 137.29 44.88L137.29 49.07L136.17 49.07L136.17 39.56L137.29 39.56L137.29 40.67Q137.56 40.21 137.96 39.91Q138.02 39.86 138.08 39.82Q138.24 39.72 138.4 39.64Q138.89 39.42 139.49 39.42Q140.17 39.42 140.75 39.65Q140.92 39.73 141.09 39.82Q141.33 39.95 141.53 40.12Q141.95 40.47 142.25 40.98ZM137.29 42.78Q137.29 42.03 137.6 41.52Q137.87 41.06 138.28 40.8Q138.33 40.76 138.38 40.73Q138.8 40.5 139.24 40.47Q139.29 40.46 139.35 40.46Q139.82 40.46 140.22 40.62Q140.34 40.67 140.45 40.73Q140.59 40.81 140.72 40.9Q141.03 41.15 141.24 41.52Q141.55 42.03 141.55 42.78Q141.55 43.52 141.24 44.04Q141.03 44.4 140.73 44.64Q140.6 44.74 140.45 44.82Q140.34 44.88 140.22 44.93Q139.82 45.09 139.35 45.09Q139.29 45.09 139.24 45.08Q138.8 45.05 138.38 44.82Q138.32 44.79 138.26 44.75Q137.87 44.49 137.6 44.04Q137.29 43.52 137.29 42.78ZM156.14 43.06L161.22 43.06Q161.23 42.97 161.23 42.89L161.23 42.72Q161.23 41.7 160.85 40.96Q160.62 40.5 160.26 40.17Q160.05 39.97 159.79 39.82Q159.75 39.8 159.71 39.78Q159.05 39.42 158.19 39.42Q157.41 39.42 156.77 39.72Q156.74 39.73 156.7 39.75Q156.34 39.93 156.04 40.2Q155.8 40.42 155.62 40.69Q155.2 41.29 155.06 42.09Q155.03 42.26 155.01 42.43Q155 42.59 155 42.78Q155 43.73 155.39 44.48Q155.39 44.49 155.4 44.5Q155.68 45.04 156.1 45.41Q156.28 45.57 156.49 45.7Q156.7 45.83 156.94 45.93Q157.45 46.14 158.05 46.14Q158.89 46.14 159.45 45.93Q160.01 45.73 160.4 45.36Q160.8 44.99 161.12 44.5L160.21 43.92Q160.03 44.23 159.78 44.46Q159.75 44.5 159.71 44.53Q159.61 44.62 159.5 44.69Q159.29 44.84 159.04 44.94Q158.67 45.09 158.19 45.09Q157.56 45.09 157.1 44.82Q156.97 44.74 156.86 44.65Q156.57 44.41 156.39 44.04Q156.18 43.62 156.14 43.06ZM156.17 42.1Q156.22 41.68 156.41 41.35Q156.42 41.33 156.44 41.31Q156.57 41.09 156.76 40.92Q156.94 40.75 157.17 40.64Q157.25 40.59 157.33 40.56Q157.73 40.4 158.19 40.4Q158.75 40.4 159.14 40.62Q159.33 40.72 159.48 40.87Q159.63 41.02 159.74 41.22Q159.96 41.6 160.01 42.1L156.17 42.1ZM176.1 40.79Q175.83 40.95 175.68 41.07L175.13 40.21Q175.5 39.95 176.11 39.68Q176.73 39.42 177.6 39.42Q178.34 39.42 178.89 39.65Q179.37 39.84 179.67 40.19Q179.71 40.25 179.76 40.31Q179.8 40.36 179.83 40.42Q180.08 40.82 180.08 41.37L180.08 46L178.96 46L178.96 45.07Q178.91 45.16 178.85 45.23Q178.78 45.33 178.69 45.42Q178.4 45.73 177.97 45.91Q177.43 46.14 176.76 46.14Q176.17 46.14 175.67 45.92Q175.66 45.92 175.65 45.91Q175.35 45.78 175.11 45.56Q174.97 45.42 174.85 45.25Q174.55 44.81 174.55 44.15Q174.55 43.52 174.83 43.07Q174.85 43.03 174.88 42.99Q174.91 42.94 174.95 42.9Q175.28 42.48 175.83 42.25Q176.45 41.99 177.29 41.99Q177.91 41.99 178.35 42.15Q178.71 42.29 178.96 42.45L178.96 41.37Q178.96 41.12 178.84 40.93Q178.74 40.76 178.54 40.64Q178.47 40.6 178.4 40.57Q178.04 40.4 177.6 40.4Q177.14 40.4 176.76 40.52Q176.38 40.63 176.1 40.79ZM178.96 43.22Q178.7 43.09 178.45 43.01Q177.96 42.84 177.35 42.84Q176.78 42.84 176.41 43Q176.05 43.15 175.87 43.42Q175.87 43.43 175.86 43.43Q175.86 43.44 175.86 43.44Q175.68 43.72 175.68 44.1Q175.68 44.37 175.79 44.57Q175.82 44.62 175.86 44.67Q175.88 44.7 175.91 44.72Q176.08 44.92 176.35 45.02Q176.66 45.14 177.04 45.14Q177.6 45.14 178.03 44.97Q178.33 44.86 178.53 44.66Q178.63 44.56 178.71 44.44Q178.96 44.08 178.96 43.48L178.96 43.22ZM236.81 43.06L241.89 43.06Q241.9 42.97 241.9 42.89L241.9 42.72Q241.9 41.7 241.52 40.96Q241.29 40.5 240.93 40.17Q240.72 39.97 240.46 39.82Q240.42 39.8 240.37 39.78Q239.72 39.42 238.86 39.42Q238.08 39.42 237.44 39.72Q237.41 39.73 237.37 39.75Q237 39.93 236.71 40.2Q236.47 40.42 236.28 40.69Q235.87 41.29 235.73 42.09Q235.7 42.26 235.68 42.43Q235.67 42.59 235.67 42.78Q235.67 43.73 236.05 44.48Q236.06 44.49 236.07 44.5Q236.35 45.04 236.77 45.41Q236.95 45.57 237.16 45.7Q237.37 45.83 237.6 45.93Q238.12 46.14 238.72 46.14Q239.56 46.14 240.12 45.93Q240.68 45.73 241.07 45.36Q241.47 44.99 241.79 44.5L240.88 43.92Q240.7 44.23 240.45 44.46Q240.41 44.5 240.37 44.53Q240.28 44.62 240.17 44.69Q239.96 44.84 239.71 44.94Q239.34 45.09 238.86 45.09Q238.23 45.09 237.77 44.82Q237.64 44.74 237.53 44.65Q237.24 44.41 237.06 44.04Q236.85 43.62 236.81 43.06ZM236.84 42.1Q236.89 41.68 237.08 41.35Q237.09 41.33 237.1 41.31Q237.24 41.09 237.43 40.92Q237.61 40.75 237.84 40.64Q237.92 40.59 238 40.56Q238.4 40.4 238.86 40.4Q239.42 40.4 239.8 40.62Q240 40.72 240.15 40.87Q240.3 41.02 240.41 41.22Q240.62 41.6 240.68 42.1L236.84 42.1ZM249.44 40.98Q249.88 41.73 249.88 42.78Q249.88 43.81 249.44 44.57Q249.15 45.08 248.72 45.43Q248.52 45.6 248.29 45.73Q248.12 45.82 247.94 45.9Q247.36 46.14 246.69 46.14Q246.09 46.14 245.6 45.91Q245.44 45.83 245.28 45.73Q245.22 45.69 245.17 45.65Q244.76 45.34 244.49 44.88L244.49 49.07L243.37 49.07L243.37 39.56L244.49 39.56L244.49 40.67Q244.76 40.21 245.16 39.91Q245.22 39.86 245.28 39.82Q245.44 39.72 245.6 39.64Q246.09 39.42 246.69 39.42Q247.36 39.42 247.94 39.65Q248.12 39.73 248.29 39.82Q248.52 39.95 248.73 40.12Q249.15 40.47 249.44 40.98ZM244.49 42.78Q244.49 42.03 244.8 41.52Q245.07 41.06 245.47 40.8Q245.53 40.76 245.58 40.73Q246 40.5 246.43 40.47Q246.49 40.46 246.55 40.46Q247.02 40.46 247.42 40.62Q247.53 40.67 247.65 40.73Q247.79 40.81 247.91 40.9Q248.23 41.15 248.44 41.52Q248.75 42.03 248.75 42.78Q248.75 43.52 248.44 44.04Q248.23 44.4 247.93 44.64Q247.79 44.74 247.65 44.82Q247.53 44.88 247.42 44.93Q247.02 45.09 246.55 45.09Q246.49 45.09 246.43 45.08Q246 45.05 245.58 44.82Q245.52 44.79 245.46 44.75Q245.07 44.49 244.8 44.04Q244.49 43.52 244.49 42.78ZM252 43.06L257.07 43.06Q257.09 42.97 257.09 42.89L257.09 42.72Q257.09 41.7 256.71 40.96Q256.48 40.5 256.12 40.17Q255.91 39.97 255.65 39.82Q255.61 39.8 255.56 39.78Q254.91 39.42 254.05 39.42Q253.27 39.42 252.63 39.72Q252.6 39.73 252.56 39.75Q252.19 39.93 251.9 40.2Q251.66 40.42 251.47 40.69Q251.06 41.29 250.92 42.09Q250.89 42.26 250.87 42.43Q250.86 42.59 250.86 42.78Q250.86 43.73 251.24 44.48Q251.25 44.49 251.26 44.5Q251.54 45.04 251.96 45.41Q252.14 45.57 252.35 45.7Q252.56 45.83 252.79 45.93Q253.31 46.14 253.91 46.14Q254.75 46.14 255.31 45.93Q255.87 45.73 256.26 45.36Q256.66 44.99 256.98 44.5L256.07 43.92Q255.89 44.23 255.64 44.46Q255.6 44.5 255.56 44.53Q255.47 44.62 255.36 44.69Q255.15 44.84 254.9 44.94Q254.53 45.09 254.05 45.09Q253.42 45.09 252.96 44.82Q252.83 44.74 252.72 44.65Q252.43 44.41 252.25 44.04Q252.04 43.62 252 43.06ZM252.03 42.1Q252.08 41.68 252.27 41.35Q252.28 41.33 252.29 41.31Q252.43 41.09 252.62 40.92Q252.8 40.75 253.03 40.64Q253.11 40.59 253.19 40.56Q253.59 40.4 254.05 40.4Q254.61 40.4 254.99 40.62Q255.19 40.72 255.34 40.87Q255.49 41.02 255.6 41.22Q255.81 41.6 255.87 42.1L252.03 42.1ZM267.12 43.06L272.2 43.06Q272.21 42.97 272.21 42.89L272.21 42.72Q272.21 41.7 271.83 40.96Q271.6 40.5 271.24 40.17Q271.03 39.97 270.77 39.82Q270.73 39.8 270.68 39.78Q270.03 39.42 269.17 39.42Q268.39 39.42 267.75 39.72Q267.72 39.73 267.68 39.75Q267.31 39.93 267.02 40.2Q266.78 40.42 266.59 40.69Q266.18 41.29 266.04 42.09Q266.01 42.26 265.99 42.43Q265.98 42.59 265.98 42.78Q265.98 43.73 266.36 44.48Q266.37 44.49 266.38 44.5Q266.66 45.04 267.08 45.41Q267.26 45.57 267.47 45.7Q267.68 45.83 267.91 45.93Q268.43 46.14 269.03 46.14Q269.87 46.14 270.43 45.93Q270.99 45.73 271.38 45.36Q271.78 44.99 272.1 44.5L271.19 43.92Q271.01 44.23 270.76 44.46Q270.72 44.5 270.68 44.53Q270.59 44.62 270.48 44.69Q270.27 44.84 270.02 44.94Q269.65 45.09 269.17 45.09Q268.54 45.09 268.08 44.82Q267.95 44.74 267.84 44.65Q267.55 44.41 267.37 44.04Q267.16 43.62 267.12 43.06ZM267.15 42.1Q267.2 41.68 267.39 41.35Q267.4 41.33 267.41 41.31Q267.55 41.09 267.74 40.92Q267.92 40.75 268.15 40.64Q268.23 40.59 268.31 40.56Q268.71 40.4 269.17 40.4Q269.73 40.4 270.11 40.62Q270.31 40.72 270.46 40.87Q270.61 41.02 270.72 41.22Q270.93 41.6 270.99 42.1L267.15 42.1ZM274.52 41.62Q274.25 42.13 274.25 42.78Q274.25 43.43 274.53 43.94Q274.53 43.96 274.54 43.97Q274.71 44.26 274.94 44.49Q275.11 44.66 275.32 44.79Q275.43 44.85 275.54 44.9Q275.95 45.09 276.45 45.09Q276.97 45.09 277.42 44.93Q277.88 44.76 278.22 44.49Q278.55 44.22 278.69 43.91L278.69 45.31Q278.36 45.7 277.73 45.92Q277.4 46.03 277.06 46.09Q276.76 46.14 276.45 46.14Q275.72 46.14 275.1 45.87Q274.92 45.8 274.76 45.7Q274.41 45.5 274.13 45.23Q273.8 44.92 273.56 44.5Q273.49 44.38 273.43 44.25Q273.12 43.59 273.12 42.78Q273.12 41.89 273.48 41.19Q273.52 41.11 273.56 41.04Q273.79 40.65 274.1 40.35Q274.39 40.06 274.76 39.85Q274.92 39.75 275.1 39.68Q275.72 39.42 276.45 39.42Q276.75 39.42 277.04 39.46Q277.39 39.52 277.73 39.63Q278.36 39.85 278.69 40.24L278.69 41.64Q278.55 41.32 278.22 41.05Q277.88 40.79 277.42 40.63Q276.97 40.46 276.45 40.46Q275.93 40.46 275.5 40.66Q275.41 40.71 275.32 40.76Q275.15 40.86 275 41Q274.73 41.24 274.54 41.58Q274.53 41.6 274.52 41.62ZM292.36 43.06L297.44 43.06Q297.45 42.97 297.45 42.89L297.45 42.72Q297.45 41.7 297.07 40.96Q296.84 40.5 296.48 40.17Q296.27 39.97 296.01 39.82Q295.97 39.8 295.93 39.78Q295.27 39.42 294.41 39.42Q293.63 39.42 293 39.72Q292.96 39.73 292.92 39.75Q292.56 39.93 292.26 40.2Q292.02 40.42 291.84 40.69Q291.42 41.29 291.28 42.09Q291.25 42.26 291.23 42.43Q291.22 42.59 291.22 42.78Q291.22 43.73 291.61 44.48Q291.61 44.49 291.62 44.5Q291.9 45.04 292.32 45.41Q292.5 45.57 292.71 45.7Q292.92 45.83 293.16 45.93Q293.67 46.14 294.27 46.14Q295.11 46.14 295.67 45.93Q296.23 45.73 296.62 45.36Q297.02 44.99 297.34 44.5L296.43 43.92Q296.25 44.23 296 44.46Q295.97 44.5 295.93 44.53Q295.83 44.62 295.73 44.69Q295.51 44.84 295.26 44.94Q294.89 45.09 294.41 45.09Q293.78 45.09 293.32 44.82Q293.19 44.74 293.08 44.65Q292.79 44.41 292.61 44.04Q292.4 43.62 292.36 43.06ZM292.4 42.1Q292.44 41.68 292.63 41.35Q292.65 41.33 292.66 41.31Q292.79 41.09 292.98 40.92Q293.16 40.75 293.39 40.64Q293.47 40.59 293.55 40.56Q293.95 40.4 294.41 40.4Q294.97 40.4 295.36 40.62Q295.55 40.72 295.7 40.87Q295.85 41.02 295.96 41.22Q296.18 41.6 296.23 42.1L292.4 42.1ZM303.77 43.06L308.85 43.06Q308.86 42.97 308.86 42.89L308.86 42.72Q308.86 41.7 308.48 40.96Q308.25 40.5 307.89 40.17Q307.68 39.97 307.42 39.82Q307.38 39.8 307.34 39.78Q306.68 39.42 305.82 39.42Q305.04 39.42 304.41 39.72Q304.37 39.73 304.33 39.75Q303.97 39.93 303.67 40.2Q303.43 40.42 303.25 40.69Q302.83 41.29 302.69 42.09Q302.66 42.26 302.64 42.43Q302.63 42.59 302.63 42.78Q302.63 43.73 303.02 44.48Q303.02 44.49 303.03 44.5Q303.31 45.04 303.73 45.41Q303.91 45.57 304.12 45.7Q304.33 45.83 304.57 45.93Q305.08 46.14 305.68 46.14Q306.52 46.14 307.08 45.93Q307.64 45.73 308.03 45.36Q308.43 44.99 308.75 44.5L307.84 43.92Q307.66 44.23 307.41 44.46Q307.38 44.5 307.34 44.53Q307.24 44.62 307.14 44.69Q306.92 44.84 306.67 44.94Q306.3 45.09 305.82 45.09Q305.19 45.09 304.73 44.82Q304.6 44.74 304.49 44.65Q304.2 44.41 304.02 44.04Q303.81 43.62 303.77 43.06ZM303.81 42.1Q303.85 41.68 304.04 41.35Q304.06 41.33 304.07 41.31Q304.2 41.09 304.39 40.92Q304.57 40.75 304.8 40.64Q304.88 40.59 304.96 40.56Q305.36 40.4 305.82 40.4Q306.38 40.4 306.77 40.62Q306.96 40.72 307.11 40.87Q307.26 41.02 307.37 41.22Q307.59 41.6 307.64 42.1L303.81 42.1ZM314.56 44.25Q314.25 43.59 314.25 42.78Q314.25 41.89 314.61 41.19Q314.65 41.11 314.69 41.04Q314.92 40.65 315.23 40.35Q315.52 40.06 315.89 39.85Q316.07 39.74 316.27 39.66Q316.87 39.42 317.58 39.42Q318.39 39.42 319.05 39.73Q319.17 39.78 319.28 39.85Q319.63 40.05 319.91 40.32Q320.24 40.63 320.47 41.04Q320.52 41.11 320.56 41.19Q320.92 41.89 320.92 42.78Q320.92 43.59 320.6 44.25Q320.54 44.38 320.47 44.5Q320.22 44.94 319.88 45.26Q319.61 45.51 319.28 45.7Q319.17 45.77 319.05 45.82Q318.39 46.14 317.58 46.14Q316.87 46.14 316.27 45.89Q316.07 45.81 315.89 45.7Q315.54 45.5 315.26 45.23Q314.93 44.92 314.69 44.5Q314.62 44.38 314.56 44.25ZM327.43 41.62Q327.16 42.13 327.16 42.78Q327.16 43.43 327.43 43.94Q327.44 43.96 327.45 43.97Q327.61 44.26 327.84 44.49Q328.02 44.66 328.23 44.79Q328.33 44.85 328.44 44.9Q328.86 45.09 329.36 45.09Q329.87 45.09 330.33 44.93Q330.79 44.76 331.12 44.49Q331.46 44.22 331.6 43.91L331.6 45.31Q331.26 45.7 330.64 45.92Q330.31 46.03 329.97 46.09Q329.67 46.14 329.36 46.14Q328.63 46.14 328 45.87Q327.83 45.8 327.66 45.7Q327.32 45.5 327.03 45.23Q326.7 44.92 326.47 44.5Q326.4 44.38 326.34 44.25Q326.03 43.59 326.03 42.78Q326.03 41.89 326.38 41.19Q326.42 41.11 326.47 41.04Q326.69 40.65 327 40.35Q327.3 40.06 327.66 39.85Q327.83 39.75 328 39.68Q328.63 39.42 329.36 39.42Q329.66 39.42 329.95 39.46Q330.3 39.52 330.64 39.63Q331.26 39.85 331.6 40.24L331.6 41.64Q331.46 41.32 331.12 41.05Q330.79 40.79 330.33 40.63Q329.87 40.46 329.36 40.46Q328.84 40.46 328.41 40.66Q328.32 40.71 328.23 40.76Q328.05 40.86 327.9 41Q327.63 41.24 327.45 41.58Q327.44 41.6 327.43 41.62ZM335.6 43.12Q335.66 43.73 335.9 44.25Q335.96 44.38 336.03 44.5Q336.27 44.92 336.6 45.23Q336.88 45.5 337.23 45.7Q337.4 45.8 337.59 45.88Q338.2 46.14 338.92 46.14Q339.73 46.14 340.39 45.82Q340.51 45.77 340.62 45.7Q340.95 45.51 341.21 45.26Q341.56 44.94 341.81 44.5Q341.88 44.38 341.94 44.25Q342.25 43.59 342.25 42.78Q342.25 41.89 341.89 41.19Q341.85 41.11 341.81 41.04Q341.57 40.63 341.24 40.32Q340.96 40.05 340.62 39.85Q340.51 39.78 340.39 39.73Q339.73 39.42 338.92 39.42Q338.2 39.42 337.59 39.67Q337.4 39.75 337.23 39.85Q336.86 40.06 336.57 40.35Q336.26 40.65 336.03 41.04Q335.99 41.11 335.95 41.19Q335.74 41.6 335.65 42.07L334.47 42.07L334.47 39.56L333.35 39.56L333.35 46L334.47 46L334.47 43.12L335.6 43.12ZM353.19 40.79Q352.92 40.95 352.77 41.07L352.22 40.21Q352.58 39.95 353.2 39.68Q353.82 39.42 354.68 39.42Q355.43 39.42 355.98 39.65Q356.45 39.84 356.75 40.19Q356.8 40.25 356.84 40.31Q356.88 40.36 356.92 40.42Q357.16 40.82 357.16 41.37L357.16 46L356.04 46L356.04 45.07Q355.99 45.16 355.94 45.23Q355.86 45.33 355.78 45.42Q355.49 45.73 355.06 45.91Q354.52 46.14 353.84 46.14Q353.25 46.14 352.75 45.92Q352.74 45.92 352.74 45.91Q352.43 45.78 352.2 45.56Q352.05 45.42 351.93 45.25Q351.63 44.81 351.63 44.15Q351.63 43.52 351.91 43.07Q351.94 43.03 351.97 42.99Q352 42.94 352.03 42.9Q352.36 42.48 352.92 42.25Q353.54 41.99 354.38 41.99Q354.99 41.99 355.43 42.15Q355.8 42.29 356.04 42.45L356.04 41.37Q356.04 41.12 355.93 40.93Q355.83 40.76 355.63 40.64Q355.56 40.6 355.48 40.57Q355.12 40.4 354.68 40.4Q354.22 40.4 353.84 40.52Q353.46 40.63 353.19 40.79ZM356.04 43.22Q355.79 43.09 355.54 43.01Q355.05 42.84 354.43 42.84Q353.87 42.84 353.5 43Q353.14 43.15 352.96 43.42Q352.95 43.43 352.95 43.43L352.94 43.44Q352.77 43.72 352.77 44.1Q352.77 44.37 352.88 44.57Q352.91 44.62 352.95 44.67Q352.97 44.7 352.99 44.72Q353.16 44.92 353.44 45.02Q353.74 45.14 354.12 45.14Q354.68 45.14 355.12 44.97Q355.41 44.86 355.62 44.66Q355.72 44.56 355.8 44.44Q356.04 44.08 356.04 43.48L356.04 43.22ZM112.36 46L112.36 39.56L113.48 39.56L113.48 41.99L115.02 41.99Q115.96 41.99 116.61 42.42Q116.65 42.45 116.69 42.47Q116.86 42.6 116.99 42.76Q117.37 43.22 117.37 43.99Q117.37 44.68 117.06 45.13Q116.96 45.28 116.82 45.4Q116.57 45.65 116.22 45.79Q115.69 46 115.02 46L112.36 46ZM113.48 45.01L115.02 45.01Q115.42 45.01 115.7 44.9Q115.9 44.81 116.03 44.65Q116.08 44.6 116.11 44.55Q116.25 44.31 116.25 43.99Q116.25 43.62 116.07 43.38Q116.02 43.3 115.94 43.24Q115.63 42.97 115.02 42.97L113.48 42.97L113.48 45.01ZM118.17 46L118.17 39.56L119.29 39.56L119.29 46L118.17 46ZM150.87 40.6L150.87 39.56L154.65 39.56L154.65 40.6L153.32 40.6L153.32 46L152.2 46L152.2 40.6L150.87 40.6ZM189.71 39.56L195.24 39.56L195.24 46L194.12 46L194.12 40.6L190.83 40.6L190.83 43.76Q190.83 44.51 190.6 45.01Q190.47 45.29 190.26 45.48Q190.1 45.64 189.89 45.75Q189.41 46 188.69 46L188.69 44.97Q188.93 44.97 189.14 44.88Q189.28 44.82 189.41 44.71Q189.71 44.44 189.71 43.76L189.71 39.56ZM209.35 39.56L214.88 39.56L214.88 46L213.76 46L213.76 40.6L210.47 40.6L210.47 43.76Q210.47 44.51 210.24 45.01Q210.11 45.29 209.91 45.48Q209.74 45.64 209.53 45.75Q209.06 46 208.33 46L208.33 44.97Q208.58 44.97 208.78 44.88Q208.93 44.82 209.05 44.71Q209.35 44.44 209.35 43.76L209.35 39.56ZM228.88 39.56L234.13 39.56L234.13 46L233.01 46L233.01 40.6L230 40.6L230 46L228.88 46L228.88 39.56ZM258.63 46L258.63 39.56L259.75 39.56L259.75 42.07L263.32 42.07L263.32 39.56L264.44 39.56L264.44 46L263.32 46L263.32 43.12L259.75 43.12L259.75 46L258.63 46ZM287.09 40.6L287.09 39.56L290.87 39.56L290.87 40.6L289.54 40.6L289.54 46L288.42 46L288.42 40.6L287.09 40.6ZM310.47 46L310.47 39.56L313.9 39.56L313.9 40.6L311.59 40.6L311.59 46L310.47 46ZM315.65 41.62Q315.39 42.13 315.39 42.78Q315.39 43.43 315.66 43.94Q315.67 43.96 315.67 43.97Q315.84 44.26 316.07 44.49Q316.24 44.66 316.45 44.79Q316.57 44.86 316.7 44.91Q317.1 45.09 317.58 45.09Q318.08 45.09 318.5 44.9Q318.61 44.85 318.71 44.79Q318.92 44.66 319.1 44.49Q319.33 44.26 319.49 43.97Q319.5 43.96 319.51 43.94Q319.78 43.43 319.78 42.78Q319.78 42.13 319.51 41.62Q319.5 41.6 319.49 41.58Q319.31 41.24 319.04 41Q318.89 40.86 318.71 40.76Q318.62 40.71 318.53 40.66Q318.1 40.46 317.58 40.46Q317.09 40.46 316.67 40.65Q316.56 40.7 316.45 40.76Q316.28 40.86 316.13 41Q315.86 41.24 315.67 41.58Q315.66 41.6 315.65 41.62ZM336.99 41.62Q336.72 42.13 336.72 42.78Q336.72 43.43 336.99 43.94Q337 43.96 337.01 43.97Q337.17 44.26 337.4 44.49Q337.58 44.66 337.79 44.79Q337.91 44.86 338.04 44.91Q338.44 45.09 338.92 45.09Q339.42 45.09 339.83 44.9Q339.94 44.85 340.05 44.79Q340.28 44.65 340.46 44.46Q340.68 44.25 340.83 43.97Q340.84 43.96 340.84 43.94Q341.12 43.43 341.12 42.78Q341.12 42.13 340.85 41.62Q340.84 41.6 340.83 41.58Q340.66 41.26 340.4 41.02Q340.24 40.87 340.05 40.76Q339.96 40.71 339.87 40.66Q339.44 40.46 338.92 40.46Q338.42 40.46 338 40.65Q337.89 40.7 337.79 40.76Q337.61 40.86 337.46 41Q337.19 41.24 337.01 41.58Q337 41.6 336.99 41.62ZM363.57 45.67Q363.53 45.56 363.53 45.43Q363.53 45.27 363.59 45.13Q363.65 45 363.76 44.89Q363.9 44.76 364.06 44.7Q364.17 44.67 364.3 44.67Q364.48 44.67 364.62 44.73Q364.75 44.79 364.85 44.89Q364.95 45 365.01 45.12Q365.07 45.27 365.07 45.43Q365.07 45.56 365.03 45.67Q364.98 45.84 364.85 45.97Q364.74 46.08 364.61 46.14Q364.47 46.2 364.3 46.2Q364.18 46.2 364.07 46.17Q363.9 46.11 363.76 45.97Q363.62 45.83 363.57 45.67Z" fill="#9ED5FF" fill-opacity="1.000000" fill-rule="evenodd"/>
	<rect id="File" rx="10.500000" width="540.000000" height="81.000000" transform="translate(0.500000 0.500000)" stroke="#9ED5FF" stroke-opacity="1.000000" stroke-width="1.000000" stroke-dasharray="4 4"/>
</svg>
