<svg width="24" height="24" viewBox="0 0 24 24" fill="none" xmlns="http://www.w3.org/2000/svg">
  <defs>
    <clipPath id="clip221_5542">
      <rect width="24" height="24" />
    </clipPath>
  </defs>
  	<g clip-path="url(#clip221_5546)">
		<path id="Vector" d="M17 14C17 14.26 16.89 14.51 16.7 14.7C16.51 14.89 16.26 15 16 15L8 15C7.73 15 7.48 14.89 7.29 14.7C7.1 14.51 7 14.26 7 14C7 13.73 7.1 13.48 7.29 13.29C7.48 13.1 7.73 13 8 13L16 13C16.26 13 16.51 13.1 16.7 13.29C16.89 13.48 17 13.73 17 14ZM13 17L8 17C7.73 17 7.48 17.1 7.29 17.29C7.1 17.48 7 17.73 7 18C7 18.26 7.1 18.51 7.29 18.7C7.48 18.89 7.73 19 8 19L13 19C13.26 19 13.51 18.89 13.7 18.7C13.89 18.51 14 18.26 14 18C14 17.73 13.89 17.48 13.7 17.29C13.51 17.1 13.26 17 13 17ZM22 10.48L22 19C21.99 20.32 21.47 21.59 20.53 22.53C19.59 23.47 18.32 23.99 17 24L7 24C5.67 23.99 4.4 23.47 3.46 22.53C2.52 21.59 2 20.32 2 19L2 5C2 3.67 2.52 2.4 3.46 1.46C4.4 0.52 5.67 0 7 0L11.51 0C12.43 -0.01 13.34 0.17 14.19 0.52C15.04 0.88 15.81 1.39 16.46 2.04L19.94 5.53C20.6 6.18 21.11 6.95 21.47 7.8C21.82 8.65 22 9.56 22 10.48ZM15.05 3.46C14.73 3.15 14.38 2.89 14 2.68L14 7C14 7.26 14.1 7.51 14.29 7.7C14.48 7.89 14.73 8 15 8L19.31 8C19.1 7.61 18.84 7.26 18.53 6.95L15.05 3.46ZM20 10.48C20 10.31 19.96 10.16 19.95 10L15 10C14.2 10 13.44 9.68 12.87 9.12C12.31 8.55 12 7.79 12 7L12 2.04C11.83 2.03 11.67 2 11.51 2L7 2C6.2 2 5.44 2.31 4.87 2.87C4.31 3.44 4 4.2 4 5L4 19C4 19.79 4.31 20.55 4.87 21.12C5.44 21.68 6.2 22 7 22L17 22C17.79 22 18.55 21.68 19.12 21.12C19.68 20.55 20 19.79 20 19L20 10.48Z" fill= "#E0F2FF" fill-opacity="1.000000" fill-rule="nonzero"/>
	</g>
</svg>
