<svg width="196.000000" height="74.000000" viewBox="0 0 196 74" fill="none" xmlns="http://www.w3.org/2000/svg" xmlns:xlink="http://www.w3.org/1999/xlink">
	<desc>
			Created with Pixso.
	</desc>
	<defs>
		<clipPath id="clip221_5524">
			<rect id="game-icons:pulley-hook" rx="0.000000" width="51.000000" height="51.000000" transform="translate(0.500000 13.500000)" fill="white" fill-opacity="0"/>
		</clipPath>
		<clipPath id="clip221_5521">
			<rect id="logo" rx="0.000000" width="195.000000" height="73.000000" transform="translate(0.500000 0.500000)" fill="white" fill-opacity="0"/>
		</clipPath>
	</defs>
	<g clip-path="url(#clip221_5521)">
		<path id="surplus" d="M111.97 39L111.97 10.91L114.85 10.91L114.85 39L111.97 39ZM44.11 35.32L46.38 33.91Q46.45 34.02 46.53 34.13Q46.97 34.77 47.53 35.32Q47.83 35.62 48.17 35.86Q48.57 36.15 49.02 36.35Q49.03 36.35 49.04 36.36Q49.88 36.73 50.88 36.73Q52.1 36.73 52.8 36.17Q53.08 35.95 53.25 35.67Q53.51 35.23 53.51 34.64Q53.51 34.12 53.3 33.7Q53.17 33.42 52.94 33.19Q52.39 32.59 51.52 32.17Q50.66 31.76 49.69 31.4Q48.61 30.97 47.51 30.37Q46.71 29.93 46.1 29.31Q45.87 29.08 45.68 28.83Q45.6 28.73 45.53 28.62Q44.94 27.72 44.94 26.43Q44.94 25.17 45.51 24.27Q45.6 24.12 45.71 23.98Q45.93 23.7 46.19 23.46Q46.84 22.87 47.72 22.54Q48.38 22.3 49.07 22.18Q49.67 22.08 50.3 22.08Q51.63 22.08 52.8 22.51Q53.97 22.94 54.87 23.66Q55.76 24.36 56.26 25.28Q56.27 25.3 56.28 25.32L53.97 26.79Q53.76 26.5 53.52 26.25Q52.97 25.67 52.26 25.25Q52.03 25.11 51.79 25.01Q50.95 24.63 49.95 24.63Q49.04 24.63 48.39 25.03Q48.13 25.19 47.98 25.42Q47.75 25.76 47.75 26.25Q47.75 26.48 47.81 26.69Q47.93 27.08 48.25 27.4Q48.75 27.9 49.54 28.31Q50.34 28.7 51.2 29.06Q52.65 29.63 53.83 30.3Q55.02 30.97 55.72 31.91Q56.42 32.84 56.42 34.32Q56.42 35.43 56.01 36.35Q55.62 37.21 54.85 37.91Q54.58 38.17 54.27 38.38Q52.84 39.36 50.74 39.36Q49.08 39.36 47.74 38.77Q46.41 38.17 45.49 37.24Q44.58 36.3 44.11 35.32ZM88.57 23.23L86.99 25.6Q86.41 25.17 85.94 24.98Q85.47 24.77 84.75 24.77Q83.69 24.77 83.08 25.3Q83.07 25.31 83.06 25.32Q83.04 25.33 83.03 25.34Q82.44 25.88 82.21 26.8Q81.98 27.73 81.98 28.91L81.98 39L79.1 39L79.1 22.44L81.98 22.44L81.98 24.33Q82.52 23.54 83.21 22.98Q84.27 22.12 85.36 22.08Q85.42 22.08 85.47 22.08Q86.38 22.08 87.15 22.31Q87.93 22.54 88.57 23.23ZM106.89 26.09Q108.01 28.02 108.01 30.72Q108.01 33.38 106.89 35.32Q106.13 36.64 105.03 37.55Q104.51 37.97 103.92 38.31Q103.49 38.55 103.04 38.74Q101.54 39.36 99.8 39.36Q98.27 39.36 97.01 38.77Q96.58 38.58 96.19 38.31Q96.04 38.21 95.89 38.1Q94.86 37.32 94.15 36.12L94.15 46.91L91.27 46.91L91.27 22.44L94.15 22.44L94.15 25.3Q94.85 24.11 95.87 23.34Q96.03 23.23 96.19 23.12Q96.58 22.86 97.01 22.66Q98.27 22.08 99.8 22.08Q101.54 22.08 103.04 22.69Q103.49 22.88 103.92 23.12Q104.53 23.46 105.05 23.89Q106.14 24.79 106.89 26.09ZM94.15 30.72Q94.15 28.81 94.94 27.48Q95.65 26.3 96.68 25.63Q96.82 25.54 96.96 25.46Q98.04 24.86 99.15 24.78Q99.3 24.77 99.45 24.77Q100.65 24.77 101.68 25.19Q101.98 25.31 102.27 25.46Q102.63 25.66 102.96 25.9Q103.76 26.53 104.32 27.48Q105.1 28.81 105.1 30.72Q105.1 32.62 104.32 33.96Q103.78 34.89 102.99 35.5Q102.65 35.77 102.27 35.97Q101.98 36.13 101.68 36.25Q100.65 36.66 99.45 36.66Q99.3 36.66 99.15 36.65Q98.04 36.58 96.96 35.97Q96.8 35.88 96.65 35.79Q95.64 35.12 94.94 33.96Q94.15 32.62 94.15 30.72ZM137.57 35.32L139.84 33.91Q139.91 34.02 139.98 34.13Q140.43 34.77 140.99 35.32Q141.29 35.62 141.63 35.86Q142.03 36.15 142.48 36.35Q142.49 36.35 142.5 36.36Q143.34 36.73 144.34 36.73Q145.56 36.73 146.26 36.17Q146.54 35.95 146.71 35.67Q146.96 35.23 146.96 34.64Q146.96 34.12 146.76 33.7Q146.63 33.42 146.4 33.19Q145.85 32.59 144.98 32.17Q144.12 31.76 143.15 31.4Q142.07 30.97 140.97 30.37Q140.16 29.93 139.55 29.31Q139.33 29.08 139.13 28.83Q139.05 28.73 138.98 28.62Q138.39 27.72 138.39 26.43Q138.39 25.17 138.97 24.27Q139.06 24.12 139.17 23.98Q139.39 23.7 139.65 23.46Q140.3 22.87 141.18 22.54Q141.84 22.3 142.52 22.18Q143.13 22.08 143.75 22.08Q145.09 22.08 146.26 22.51Q147.43 22.94 148.33 23.66Q149.21 24.36 149.71 25.28Q149.72 25.3 149.73 25.32L147.43 26.79Q147.22 26.5 146.98 26.25Q146.43 25.67 145.72 25.25Q145.49 25.11 145.25 25.01Q144.41 24.63 143.4 24.63Q142.5 24.63 141.85 25.03Q141.59 25.19 141.43 25.42Q141.21 25.76 141.21 26.25Q141.21 26.48 141.27 26.69Q141.38 27.08 141.71 27.4Q142.21 27.9 143 28.31Q143.8 28.7 144.66 29.06Q146.1 29.63 147.29 30.3Q148.47 30.97 149.18 31.91Q149.88 32.84 149.88 34.32Q149.88 35.43 149.47 36.35Q149.07 37.21 148.31 37.91Q148.03 38.17 147.73 38.38Q146.29 39.36 144.19 39.36Q142.53 39.36 141.2 38.77Q139.87 38.17 138.95 37.24Q138.03 36.3 137.57 35.32ZM63.08 22.44L63.08 32.52Q63.08 34.5 63.98 35.58Q64.19 35.83 64.45 36.02Q65.29 36.66 66.61 36.66Q67.87 36.66 68.82 36.14Q69.38 35.83 69.79 35.39Q70.08 35.07 70.3 34.68Q70.32 34.64 70.34 34.61Q70.83 33.69 70.83 32.52L70.83 22.44L73.7 22.44L73.7 39L70.83 39L70.83 36.4Q69.99 37.88 68.77 38.62Q68.76 38.63 68.74 38.63Q67.53 39.36 65.89 39.36Q64.21 39.36 62.97 38.62Q62.29 38.22 61.75 37.6Q61.63 37.46 61.52 37.31Q60.2 35.6 60.2 32.88L60.2 22.44L63.08 22.44ZM123.13 22.44L123.13 32.52Q123.13 34.5 124.03 35.58Q124.24 35.83 124.5 36.02Q125.34 36.66 126.66 36.66Q127.92 36.66 128.87 36.14Q129.43 35.83 129.84 35.39Q130.13 35.07 130.35 34.68Q130.37 34.64 130.39 34.61Q130.88 33.69 130.88 32.52L130.88 22.44L133.75 22.44L133.75 39L130.88 39L130.88 36.4Q130.04 37.88 128.82 38.62Q128.81 38.63 128.79 38.63Q127.58 39.36 125.94 39.36Q124.26 39.36 123.01 38.62Q122.34 38.22 121.8 37.6Q121.68 37.46 121.56 37.31Q120.25 35.6 120.25 32.88L120.25 22.44L123.13 22.44Z" fill="#9ED5FF" fill-opacity="1.000000" fill-rule="evenodd"/>
		<path id="излишек" d="M72.74 43.17L61.75 55.17L61.75 44.44L58.88 44.44L58.88 62.25L69.86 50.27L69.86 61L72.74 61L72.74 43.17ZM129.4 43.17L118.42 55.17L118.42 44.44L115.54 44.44L115.54 62.25L126.52 50.27L126.52 61L129.4 61L129.4 43.17ZM84.18 52.72L84.18 50.91Q85.84 50.91 86.56 50.29Q86.98 49.92 87.15 49.46Q87.28 49.13 87.28 48.75Q87.28 48.19 87.04 47.77Q86.86 47.46 86.56 47.23Q85.84 46.67 84.54 46.67Q83.46 46.67 82.76 47.08Q82.06 47.5 81.73 48.09Q81.41 48.68 81.41 49.26L78.5 49.26Q78.5 48.62 78.66 48.02Q78.86 47.31 79.29 46.67Q79.46 46.41 79.66 46.18Q80.38 45.33 81.44 44.78L81.44 44.78Q82.81 44.08 84.54 44.08Q86.16 44.08 87.45 44.69Q88.75 45.3 89.49 46.31Q89.91 46.88 90.09 47.51Q90.23 48.01 90.23 48.54Q90.23 49.21 90.01 49.8Q89.63 50.79 88.62 51.53Q88.19 51.85 87.66 52.09Q88.47 52.33 89.12 52.72Q89.86 53.16 90.31 53.8Q90.95 54.75 90.95 56.13Q90.95 57.31 90.49 58.25Q90.31 58.6 90.06 58.93Q89.93 59.11 89.77 59.28Q88.95 60.2 87.71 60.73Q86.23 61.36 84.47 61.36Q81.9 61.36 80.24 60.13Q80.01 59.96 79.81 59.77Q79.06 59.09 78.58 58.26Q77.94 57.15 77.78 55.77L80.7 55.77Q80.79 56.22 80.96 56.63Q81.25 57.31 81.77 57.9L81.77 57.9Q82.6 58.83 84.47 58.83Q85.63 58.83 86.43 58.52Q87.19 58.21 87.61 57.66Q87.64 57.62 87.67 57.58Q87.83 57.36 87.93 57.11Q88.1 56.68 88.1 56.17Q88.1 55.46 87.8 54.92Q87.73 54.81 87.66 54.7Q87.21 54.09 86.32 53.76Q85.44 53.44 84.18 53.44L84.18 52.72ZM164.56 53.44L177.6 53.44Q177.64 53.22 177.64 53.01L177.64 52.58Q177.64 49.95 176.66 48.06Q176.06 46.87 175.15 46.02Q174.59 45.51 173.93 45.12Q173.82 45.06 173.72 45Q172.02 44.08 169.83 44.08Q167.82 44.08 166.18 44.85Q166.09 44.89 165.99 44.94Q165.05 45.41 164.3 46.1Q163.68 46.66 163.2 47.35Q162.13 48.9 161.77 50.95Q161.7 51.38 161.65 51.82Q161.62 52.25 161.62 52.72Q161.62 55.16 162.61 57.09Q162.63 57.13 162.64 57.16Q163.36 58.53 164.44 59.49Q164.91 59.9 165.45 60.24Q166 60.58 166.59 60.82Q167.92 61.36 169.46 61.36Q171.63 61.36 173.07 60.84Q174.51 60.31 175.51 59.36Q176.52 58.4 177.35 57.15L175.01 55.67Q174.55 56.45 173.92 57.05Q173.82 57.14 173.72 57.23Q173.47 57.45 173.2 57.64Q172.65 58.03 172.01 58.28Q171.06 58.66 169.83 58.66Q168.21 58.66 167.02 57.97Q166.69 57.78 166.4 57.54Q165.65 56.91 165.18 55.96Q164.66 54.88 164.56 53.44ZM164.64 50.98Q164.75 49.9 165.25 49.04Q165.28 49 165.31 48.95Q165.66 48.38 166.14 47.94Q166.61 47.51 167.2 47.21Q167.4 47.11 167.61 47.02Q168.63 46.6 169.83 46.6Q171.27 46.6 172.25 47.16Q172.75 47.44 173.13 47.82Q173.52 48.21 173.8 48.71Q174.36 49.69 174.51 50.98L164.64 50.98ZM95.56 44.44L109.78 44.44L109.78 61L106.9 61L106.9 47.13L98.44 47.13L98.44 55.24Q98.44 57.18 97.84 58.46Q97.51 59.17 96.99 59.68Q96.57 60.09 96.03 60.37Q94.8 61 92.93 61L92.93 58.37Q93.57 58.37 94.1 58.13Q94.47 57.96 94.79 57.68Q95.56 57 95.56 55.24L95.56 44.44ZM147.76 44.44L147.76 58.3L154.78 58.3L154.78 44.44L157.66 44.44L157.66 61L134.98 61L134.98 44.44L137.86 44.44L137.86 58.3L144.88 58.3L144.88 44.44L147.76 44.44ZM181.42 61L181.42 44.44L184.3 44.44L184.3 50.26L190.42 44.44L194.02 44.44L186.82 51.27L194.74 61L191.14 61L184.3 52.59L184.3 61L181.42 61Z" fill="#9ED5FF" fill-opacity="1.000000" fill-rule="evenodd"/>
		<rect id="game-icons:pulley-hook" rx="0.000000" width="51.000000" height="51.000000" transform="translate(0.500000 13.500000)" fill="#FFFFFF" fill-opacity="0"/>
		<g clip-path="url(#clip221_5524)">
			<path id="Vector" d="M26.17 19.58C22.41 19.58 20.14 20.8 18.66 22.82C17.19 24.84 16.55 27.79 16.55 31.23C16.55 34.55 17.82 38.78 19.72 42.07C21.62 45.37 24.12 47.59 26.17 47.59C28.21 47.59 30.72 45.37 32.61 42.07C34.51 38.78 35.78 34.55 35.78 31.23C35.78 27.79 35.14 24.84 33.67 22.82C32.2 20.8 29.93 19.58 26.17 19.58ZM26.17 23.02C29.08 23.02 31.47 25.4 31.47 28.32C31.47 31.24 29.08 33.62 26.17 33.62C23.25 33.62 20.87 31.24 20.87 28.32C20.87 25.4 23.25 23.02 26.17 23.02ZM26.17 24.85C25.71 24.84 25.26 24.93 24.84 25.11C24.41 25.28 24.03 25.54 23.71 25.86C23.38 26.18 23.13 26.57 22.95 26.99C22.78 27.41 22.69 27.86 22.69 28.32C22.69 28.78 22.78 29.23 22.95 29.65C23.13 30.07 23.38 30.46 23.71 30.78C24.03 31.1 24.41 31.36 24.84 31.53C25.26 31.71 25.71 31.79 26.17 31.79C26.62 31.79 27.08 31.71 27.5 31.53C27.92 31.36 28.3 31.1 28.63 30.78C28.95 30.46 29.21 30.07 29.38 29.65C29.55 29.23 29.64 28.78 29.64 28.32C29.64 27.86 29.55 27.41 29.38 26.99C29.21 26.57 28.95 26.18 28.63 25.86C28.3 25.54 27.92 25.28 27.5 25.11C27.08 24.93 26.62 24.84 26.17 24.85ZM26.17 41.48C26.63 41.48 27.08 41.67 27.41 42C27.74 42.33 27.92 42.77 27.92 43.24C27.92 43.7 27.74 44.15 27.41 44.48C27.08 44.81 26.63 44.99 26.17 44.99C25.94 44.99 25.71 44.95 25.5 44.86C25.28 44.77 25.09 44.64 24.93 44.48C24.76 44.31 24.63 44.12 24.55 43.91C24.46 43.7 24.41 43.47 24.41 43.24C24.41 42.77 24.6 42.33 24.93 42C25.26 41.67 25.7 41.48 26.17 41.48ZM24 48.98C23.84 50.26 25.56 51.88 26.36 52.53C27.75 53.64 28.11 54.3 28.14 55.45C28.02 57.52 25.63 58.5 24.07 57.74C23 57.24 22.63 56.35 22.23 55.07C21.94 54.14 21.35 53.27 20.52 52.68C20.43 52.63 20.34 52.56 20.24 52.49C19.66 52.07 18.96 51.58 18.36 52.11C18.05 52.65 18.35 53.01 18.72 53.45C18.92 53.7 19.15 53.98 19.31 54.33C19.39 54.83 19.39 55.18 19.4 55.53C19.4 55.6 19.4 55.66 19.4 55.73C19.41 57.4 20.14 61.77 26.13 61.93C29.74 62.02 32.72 58.75 32.87 55.59C32.89 55.14 33 50.81 28.3 48.99C27.62 49.26 26.9 49.42 26.17 49.42C25.42 49.42 24.7 49.26 24 48.98Z" fill="#9ED5FF" fill-opacity="1.000000" fill-rule="evenodd"/>
		</g>
	</g>
</svg>
