<svg width="24" height="24" viewBox="0 0 24 24" fill="none" xmlns="http://www.w3.org/2000/svg">
  <defs>
    <clipPath id="clip221_5542">
      <rect width="24" height="24" />
    </clipPath>
  </defs>
  	<g clip-path="url(#clip221_5569)">
		<path id="Vector" d="M11.47 15C11.21 15 10.95 15.1 10.76 15.29C10.58 15.48 10.47 15.73 10.47 16L10.47 19C10.47 19.79 10.15 20.55 9.59 21.12C9.03 21.68 8.27 22 7.47 22L5 22C4.2 22 3.44 21.68 2.87 21.12C2.31 20.55 2 19.79 2 19L2 5C2 4.2 2.31 3.44 2.87 2.87C3.44 2.31 4.2 2 5 2L7.47 2C8.27 2 9.03 2.31 9.59 2.87C10.15 3.44 10.47 4.2 10.47 5L10.47 8C10.47 8.26 10.58 8.51 10.76 8.7C10.95 8.89 11.21 9 11.47 9C11.74 9 11.99 8.89 12.18 8.7C12.37 8.51 12.47 8.26 12.47 8L12.47 5C12.47 3.67 11.94 2.4 11 1.46C10.07 0.52 8.8 0 7.47 0L5 0C3.67 0 2.4 0.52 1.46 1.46C0.52 2.4 0 3.67 0 5L0 19C0 20.32 0.52 21.59 1.46 22.53C2.4 23.47 3.67 23.99 5 24L7.47 24C8.8 23.99 10.07 23.47 11 22.53C11.94 21.59 12.47 20.32 12.47 19L12.47 16C12.47 15.73 12.37 15.48 12.18 15.29C11.99 15.1 11.74 15 11.47 15Z" fill= "#E0F2FF" fill-opacity="1.000000" fill-rule="nonzero"/>
		<path id="Vector" d="M22.86 9.87L18.28 5.29C18.18 5.19 18.07 5.12 17.95 5.06C17.83 5.01 17.7 4.98 17.57 4.98C17.43 4.98 17.3 5.01 17.18 5.06C17.06 5.11 16.94 5.18 16.85 5.28C16.76 5.37 16.68 5.48 16.63 5.6C16.58 5.73 16.56 5.86 16.56 5.99C16.56 6.12 16.59 6.26 16.64 6.38C16.69 6.5 16.77 6.61 16.86 6.7L21.12 10.97L6 11C5.73 11 5.48 11.1 5.29 11.29C5.1 11.48 5 11.73 5 12C5 12.26 5.1 12.51 5.29 12.7C5.48 12.89 5.73 13 6 13L21.18 12.96L16.86 17.29C16.76 17.38 16.69 17.49 16.64 17.61C16.58 17.73 16.56 17.87 16.55 18C16.55 18.13 16.58 18.26 16.63 18.39C16.68 18.51 16.75 18.62 16.85 18.71C16.94 18.81 17.05 18.88 17.18 18.93C17.3 18.98 17.43 19.01 17.56 19.01C17.7 19.01 17.83 18.98 17.95 18.93C18.07 18.87 18.18 18.8 18.27 18.7L22.86 14.12C23.42 13.55 23.74 12.79 23.74 12C23.74 11.2 23.42 10.44 22.86 9.87Z" fill= "#E0F2FF" fill-opacity="1.000000" fill-rule="nonzero"/>
	</g>
</svg>
