<svg width="24" height="24" viewBox="0 0 24 24" fill="none" xmlns="http://www.w3.org/2000/svg">
  <defs>
    <clipPath id="clip221_5542">
      <rect width="24" height="24" />
    </clipPath>
  </defs><g clip-path="url(#clip163_369)">
		<path id="Vector" d="M23.7 22.29L17.73 16.32C19.36 14.33 20.16 11.79 19.97 9.23C19.77 6.67 18.6 4.28 16.7 2.55C14.79 0.83 12.3 -0.1 9.73 -0.03C7.16 0.03 4.71 1.08 2.9 2.9C1.08 4.71 0.03 7.16 -0.03 9.73C-0.1 12.3 0.83 14.79 2.55 16.7C4.28 18.6 6.67 19.78 9.23 19.97C11.79 20.16 14.33 19.36 16.32 17.73L22.29 23.7C22.48 23.89 22.73 23.99 22.99 23.98C23.25 23.98 23.5 23.88 23.69 23.69C23.88 23.51 23.98 23.25 23.98 22.99C23.98 22.73 23.88 22.48 23.7 22.29ZM9.99 18C8.41 18 6.87 17.53 5.55 16.65C4.23 15.77 3.21 14.52 2.6 13.06C2 11.6 1.84 9.99 2.15 8.43C2.46 6.88 3.22 5.46 4.34 4.34C5.46 3.22 6.88 2.46 8.43 2.15C9.99 1.84 11.59 2 13.06 2.6C14.52 3.21 15.77 4.24 16.65 5.55C17.53 6.87 17.99 8.41 17.99 10C17.99 12.12 17.15 14.15 15.65 15.65C14.15 17.15 12.12 17.99 9.99 18Z" fill="#9ED5FF" fill-opacity="1.000000" fill-rule="nonzero"/>
	</g>
</svg>
