<svg width="24" height="24" viewBox="0 0 24 24" fill="none" xmlns="http://www.w3.org/2000/svg">
  <defs>
    <clipPath id="clip221_5542">
      <rect width="24" height="24" />
    </clipPath>
  </defs>
  <g clip-path="url(#clip221_5542)">
    <path d="M24 16L24 21C24 21.79 23.68 22.55 23.12 23.12C22.55 23.68 21.79 24 21 24L16 24C14.59 23.99 13.21 23.62 12 22.92C10.79 22.22 9.78 21.21 9.07 20C9.83 19.99 10.58 19.91 11.32 19.75C11.88 20.45 12.59 21.02 13.4 21.4C14.21 21.79 15.1 22 16 22L21 22C21.26 22 21.51 21.89 21.7 21.7C21.89 21.51 22 21.26 22 21L22 16C21.99 15.1 21.79 14.21 21.4 13.4C21.01 12.59 20.45 11.88 19.74 11.32C19.9 10.58 19.99 9.83 20 9.08C21.21 9.78 22.22 10.79 22.92 12C23.62 13.21 23.99 14.59 24 16ZM17.97 9.65C18.07 8.36 17.88 7.06 17.43 5.85C16.98 4.64 16.27 3.54 15.36 2.63C14.45 1.72 13.35 1.01 12.14 0.56C10.93 0.11 9.63 -0.08 8.34 0.02C6.06 0.28 3.95 1.37 2.41 3.07C0.88 4.78 0.02 6.99 0 9.29L0 14.33C0 16.86 1.5 18 3 18L8.69 18C10.99 17.98 13.21 17.12 14.91 15.58C16.62 14.04 17.71 11.93 17.97 9.65ZM13.95 4.05C14.65 4.76 15.2 5.61 15.55 6.56C15.9 7.5 16.05 8.5 15.98 9.51C15.76 11.29 14.91 12.93 13.56 14.13C12.22 15.32 10.49 15.99 8.69 16L3 16C2.07 16 2 14.72 2 14.33L2 9.29C2 7.49 2.67 5.76 3.86 4.42C5.06 3.08 6.7 2.23 8.48 2.01C8.65 2 8.82 2 8.98 2C9.9 1.99 10.82 2.18 11.67 2.53C12.52 2.88 13.29 3.39 13.95 4.05Z" fill= "#E0F2FF" />
  </g>
</svg>
