<svg width="24" height="24" viewBox="0 0 24 24" fill="none" xmlns="http://www.w3.org/2000/svg">
  <defs>
    <clipPath id="clip221_5542">
      <rect width="24" height="24" />
    </clipPath>
  </defs>
	<g clip-path="url(#clip163_370)">
		<path id="Vector" d="M22.99 11L20.99 11L20.99 9C20.99 8.73 20.89 8.48 20.7 8.29C20.51 8.1 20.26 8 19.99 8C19.73 8 19.48 8.1 19.29 8.29C19.1 8.48 18.99 8.73 18.99 9L18.99 11L16.99 11C16.73 11 16.48 11.1 16.29 11.29C16.1 11.48 15.99 11.73 15.99 12C15.99 12.26 16.1 12.52 16.29 12.7C16.48 12.89 16.73 13 16.99 13L18.99 13L18.99 15C18.99 15.26 19.1 15.52 19.29 15.7C19.48 15.89 19.73 16 19.99 16C20.26 16 20.51 15.89 20.7 15.7C20.89 15.52 20.99 15.26 20.99 15L20.99 13L22.99 13C23.26 13 23.51 12.89 23.7 12.7C23.89 12.52 23.99 12.26 23.99 12C23.99 11.73 23.89 11.48 23.7 11.29C23.51 11.1 23.26 11 22.99 11Z" fill="#9ED5FF" fill-opacity="1.000000" fill-rule="nonzero"/>
		<path id="Vector" d="M9 12C10.18 12 11.34 11.64 12.33 10.98C13.32 10.32 14.08 9.39 14.54 8.29C14.99 7.19 15.11 5.99 14.88 4.82C14.65 3.66 14.08 2.59 13.24 1.75C12.4 0.91 11.33 0.34 10.17 0.11C9 -0.12 7.8 0 6.7 0.45C5.6 0.91 4.67 1.67 4.01 2.66C3.35 3.65 3 4.81 3 6C3 7.59 3.63 9.11 4.75 10.24C5.88 11.36 7.4 11.99 9 12ZM9 2C9.79 2 10.56 2.23 11.22 2.67C11.88 3.11 12.39 3.73 12.69 4.46C12.99 5.2 13.07 6 12.92 6.78C12.76 7.55 12.38 8.26 11.82 8.82C11.26 9.38 10.55 9.76 9.78 9.92C9 10.07 8.2 9.99 7.46 9.69C6.73 9.39 6.11 8.87 5.67 8.22C5.23 7.56 5 6.79 5 6C5 4.93 5.42 3.92 6.17 3.17C6.92 2.42 7.93 2 9 2Z" fill="#9ED5FF" fill-opacity="1.000000" fill-rule="nonzero"/>
		<path id="Vector" d="M9 14C6.61 14 4.32 14.95 2.63 16.63C0.95 18.32 0 20.61 0 23C0 23.26 0.1 23.52 0.29 23.7C0.48 23.89 0.73 24 1 24C1.26 24 1.51 23.89 1.7 23.7C1.89 23.52 2 23.26 2 23C2 21.14 2.73 19.36 4.05 18.05C5.36 16.73 7.14 16 9 16C10.85 16 12.63 16.73 13.94 18.05C15.26 19.36 16 21.14 16 23C16 23.26 16.1 23.52 16.29 23.7C16.48 23.89 16.73 24 17 24C17.26 24 17.51 23.89 17.7 23.7C17.89 23.52 18 23.26 18 23C17.99 20.61 17.04 18.32 15.36 16.63C13.67 14.95 11.38 14 9 14Z" fill="#9ED5FF" fill-opacity="1.000000" fill-rule="nonzero"/>
	</g>
</svg>
