<svg width="24" height="24" viewBox="0 0 24 24" fill="none" xmlns="http://www.w3.org/2000/svg">
  <defs>
    <clipPath id="clip221_5542">
      <rect width="24" height="24" />
    </clipPath>
  </defs>
  <g clip-path="url(#clip160_277)">
		<path id="Vector" d="M23.05 16.73C23.63 17.32 23.96 18.1 23.96 18.92C23.96 19.74 23.63 20.53 23.05 21.11L22.14 22.16C13.95 30 -5.98 10.08 1.74 1.86L2.89 0.86C3.47 0.3 4.25 -0.01 5.06 0C5.87 0 6.64 0.33 7.22 0.9C7.25 0.93 9.1 3.34 9.1 3.34C9.65 3.92 9.96 4.68 9.95 5.48C9.95 6.28 9.65 7.04 9.09 7.62L7.93 9.08C8.58 10.64 9.52 12.05 10.71 13.24C11.9 14.43 13.31 15.38 14.87 16.02L16.33 14.86C16.91 14.31 17.67 14 18.47 14C19.27 14 20.03 14.3 20.61 14.85C20.61 14.85 23.02 16.7 23.05 16.73ZM21.68 18.19C21.68 18.19 19.28 16.35 19.25 16.32C19.05 16.11 18.77 16 18.48 16C18.19 16 17.91 16.11 17.7 16.32C17.68 16.34 15.66 17.95 15.66 17.95C15.52 18.06 15.36 18.13 15.19 18.16C15.02 18.18 14.84 18.16 14.68 18.1C12.66 17.35 10.83 16.18 9.31 14.66C7.79 13.14 6.61 11.31 5.86 9.29C5.79 9.13 5.77 8.95 5.79 8.77C5.82 8.6 5.89 8.43 6 8.3C6 8.3 7.61 6.28 7.64 6.25C7.84 6.05 7.95 5.77 7.95 5.48C7.95 5.19 7.84 4.91 7.64 4.7C7.6 4.67 5.76 2.28 5.76 2.28C5.55 2.09 5.28 1.99 5 2C4.72 2 4.45 2.12 4.25 2.32L3.1 3.32C-2.54 10.1 14.73 26.41 20.68 20.8L21.59 19.75C21.8 19.55 21.93 19.28 21.95 18.99C21.97 18.7 21.87 18.41 21.68 18.19Z" fill="#9ED5FF" fill-opacity="1.000000" fill-rule="nonzero"/>
	</g>
</svg>
