<svg width="24" height="24" viewBox="0 0 24 24" fill="none" xmlns="http://www.w3.org/2000/svg">
  <defs>
    <clipPath id="clip221_5542">
      <rect width="24" height="24" />
    </clipPath>
  </defs>
  <g clip-path="url(#clip160_261)">
		<path id="Vector" d="M23.11 0.88C22.76 0.51 22.31 0.25 21.82 0.11C21.33 -0.03 20.81 -0.04 20.31 0.08L4.31 3.45C3.39 3.57 2.52 3.95 1.81 4.55C1.09 5.14 0.55 5.92 0.26 6.8C-0.04 7.68 -0.08 8.63 0.13 9.54C0.34 10.44 0.8 11.27 1.46 11.93L3.18 13.64C3.27 13.74 3.35 13.85 3.4 13.97C3.45 14.09 3.47 14.22 3.47 14.35L3.47 17.52C3.47 17.97 3.58 18.41 3.77 18.81L3.76 18.81L3.79 18.84C4.08 19.43 4.56 19.9 5.15 20.19L5.18 20.22L5.19 20.21C5.59 20.41 6.02 20.51 6.47 20.51L9.64 20.51C9.9 20.51 10.16 20.62 10.35 20.81L12.06 22.52C12.52 22.99 13.07 23.36 13.67 23.61C14.28 23.86 14.93 23.99 15.58 24C16.13 23.99 16.67 23.91 17.19 23.73C18.06 23.44 18.84 22.92 19.43 22.21C20.02 21.51 20.4 20.65 20.53 19.75L23.91 3.71C24.03 3.21 24.02 2.69 23.88 2.19C23.75 1.69 23.48 1.24 23.11 0.88ZM4.59 12.23L2.88 10.52C2.48 10.13 2.2 9.63 2.07 9.08C1.94 8.54 1.97 7.97 2.15 7.44C2.33 6.9 2.66 6.42 3.11 6.06C3.55 5.7 4.09 5.48 4.65 5.42L20.5 2.08L5.47 17.11L5.47 14.35C5.47 13.96 5.4 13.57 5.24 13.21C5.09 12.84 4.87 12.51 4.59 12.23ZM18.57 19.4C18.49 19.96 18.26 20.48 17.9 20.9C17.55 21.33 17.08 21.66 16.55 21.83C16.02 22.01 15.46 22.04 14.91 21.91C14.37 21.78 13.87 21.51 13.48 21.12L11.76 19.39C11.48 19.12 11.15 18.89 10.79 18.74C10.42 18.59 10.03 18.52 9.64 18.52L6.88 18.52L21.91 3.5L18.57 19.4Z" fill="#9ED5FF" fill-opacity="1.000000" fill-rule="nonzero"/>
	</g>
</svg>
